<?xml version="1.0" standalone="no"?>
<!DOCTYPE svg PUBLIC "-//W3C//DTD SVG 20010904//EN"
 "http://www.w3.org/TR/2001/REC-SVG-20010904/DTD/svg10.dtd">
<svg version="1.0" xmlns="http://www.w3.org/2000/svg"
 width="288.000000pt" height="288.000000pt" viewBox="0 0 288.000000 288.000000"
 preserveAspectRatio="xMidYMid meet">
<metadata>
Created by potrace 1.14, written by Peter Selinger 2001-2017
</metadata>
<g transform="translate(0.000000,288.000000) scale(0.100000,-0.100000)"
fill="#000000" stroke="none">
<path d="M610 2751 c-75 -24 -107 -42 -162 -90 -181 -160 -190 -443 -20 -616
l49 -50 -63 -597 c-34 -329 -64 -604 -68 -613 -3 -8 -13 -15 -23 -15 -33 0
-121 -48 -166 -89 -26 -24 -56 -67 -73 -104 -25 -54 -29 -74 -29 -152 0 -77 4
-98 27 -148 15 -32 49 -79 77 -106 169 -164 458 -110 558 104 38 83 44 196 14
276 -26 68 -86 139 -147 175 -44 26 -45 27 -39 68 5 39 115 1104 115 1117 0 4
37 9 83 12 45 3 91 8 102 11 18 6 38 -34 200 -410 99 -230 184 -428 188 -441
7 -18 3 -30 -16 -53 -39 -46 -67 -132 -67 -205 0 -131 73 -246 196 -306 55
-28 74 -32 144 -32 65 0 89 5 133 26 81 40 132 90 169 165 29 60 33 76 33 152
0 72 -4 93 -27 140 -15 31 -40 68 -57 84 l-29 28 147 439 146 439 35 -6 c19
-4 37 -8 39 -10 2 -1 37 -254 78 -560 73 -541 75 -558 57 -571 -157 -112 -196
-296 -98 -451 52 -81 166 -142 264 -142 97 0 213 63 265 144 82 130 65 293
-41 400 -40 39 -124 86 -157 86 -10 0 -20 6 -22 13 -13 32 -153 1122 -146
1125 24 8 102 78 126 112 153 221 60 502 -194 585 -78 25 -190 17 -265 -19
-130 -64 -207 -179 -214 -322 -5 -97 12 -158 65 -236 l36 -52 -148 -446 -148
-445 -63 -1 c-58 -1 -63 1 -74 25 -7 14 -93 212 -191 439 l-179 414 30 38
c100 126 119 310 47 455 -90 180 -311 276 -497 216z"/>
</g>
</svg>
